<svg xmlns="http://www.w3.org/2000/svg" version="1.1" xmlns:xlink="http://www.w3.org/1999/xlink" xmlns:svgjs="http://svgjs.dev/svgjs" width="1440" height="560" preserveAspectRatio="none" viewBox="0 0 1440 560"><g mask="url(&quot;#SvgjsMask1021&quot;)" fill="none"><rect width="1440" height="560" x="0" y="0" fill="rgba(218, 90, 118, 1)"></rect><path d="M 0,114 C 57.6,147.2 172.8,299.2 288,280 C 403.2,260.8 460.8,24.8 576,18 C 691.2,11.2 748.8,228 864,246 C 979.2,264 1036.8,106 1152,108 C 1267.2,110 1382.4,226.4 1440,256L1440 560L0 560z" fill="rgba(225, 122, 144, 1)"></path><path d="M 0,429 C 41.2,399.2 123.6,278.6 206,280 C 288.4,281.4 329.6,413.8 412,436 C 494.4,458.2 535.6,372.2 618,391 C 700.4,409.8 741.6,537 824,530 C 906.4,523 947.6,353 1030,356 C 1112.4,359 1154,541.4 1236,545 C 1318,548.6 1399.2,408.2 1440,374L1440 560L0 560z" fill="rgba(232, 153, 170, 1)"></path></g><defs><mask id="SvgjsMask1021"><rect width="1440" height="560" fill="#ffffff"></rect></mask></defs></svg>